# Created by Open3D 
# object name: link_base
# number of vertices: 176
# number of triangles: 348
v 0.0493524 -0.0388015 0.00899911
vn 0.751779 -0.65169 0.100641
v 0.047603 -0.0412559 0.00100002
vn 0.752578 -0.647503 -0.119859
v 0.0434637 -0.045585 0.00899911
vn 0.714796 -0.692127 0.100139
v 0.0513113 -0.0365321 0.00899911
vn 0.841243 -0.531304 0.100128
v -0.0119131 -0.061853 0.00899911
vn -0.122111 -0.987432 0.100336
v -0.00598734 -0.062704 0.00100002
vn -0.0909275 -0.988632 -0.119743
v 0 -0.063 0.00899911
vn 0 -0.995129 0.098579
v 0.0429879 -0.0201875 0.1548
vn 0.870682 -0.402875 0.282144
v 0.060243 -0.017674 0.00899911
vn 0.939992 -0.325605 0.101959
v 0.0572986 -0.0261595 0.00899911
vn 0.923232 -0.372216 0.0953844
v 0.0612162 -0.0148496 0.00899911
vn 0.963494 -0.248322 0.100079
v -0.0368415 -0.0299697 0.1548
vn -0.593624 -0.48669 0.640893
v -0.0425881 -0.0210151 0.1548
vn -0.78966 -0.39995 0.46527
v -0.0804299 -0.0169161 0.029549
vn -0.845963 -0.477275 0.237814
v -0.046196 -0.0110097 0.1548
vn -0.756288 -0.175591 0.630236
v -0.0923057 0.0108197 0.0339382
vn -0.937497 -0.101242 0.33294
v -0.0474978 -0.00045563 0.1548
vn -0.788105 -0.00558408 0.615515
v -0.0923057 0.00567932 0.0291015
vn -0.861587 -0.443808 0.24638
v -0.0804299 -0.0175987 0.027
vn -0.720542 -0.68016 -0.134913
v -0.0804299 -0.0169161 0.024451
vn -0.73851 -0.591002 -0.324529
v -0.0923098 0.00543325 0.0257241
vn -0.959034 -0.277996 -0.0545089
v 0.0411229 -0.047435 0.00899911
vn 0.615586 -0.781655 0.100346
v 0.0299697 -0.0368415 0.1548
vn 0.572356 -0.712178 0.406462
v 0.0340515 -0.0529975 0.00899911
vn 0.530263 -0.841871 0.100367
v -0.0340515 -0.0529975 0.00899911
vn -0.552218 -0.827653 0.100229
v -0.0201875 -0.0429879 0.1548
vn -0.388082 -0.798662 0.459926
v -0.0292537 -0.037418 0.1548
vn -0.565422 -0.778155 0.273446
v -0.0787085 -0.0189363 0.0270998
vn -0.57872 -0.809361 0.100089
v 0.00598734 0.062704 0.00899911
vn 0.0967155 0.990238 0.10037
v -0.00598734 0.062704 0.00899911
vn -0.102297 0.989673 0.100409
v -0.00045564 0.0474978 0.1548
vn -0.00614094 0.993712 0.111795
v 0.0624975 -0.00595712 0.00899911
vn 0.984802 -0.141257 0.101056
v 0.0623496 -0.00895419 0.00100002
vn 0.982225 -0.174882 -0.0682005
v 0.0629163 -0.00299706 0.00899911
vn 0.99386 -0.0471277 0.100109
v 0.037418 -0.0292537 0.1548
vn 0.719569 -0.584062 0.375622
v 0.0288649 -0.0559945 0.00100002
vn 0.456437 -0.885474 -0.0871889
v 0.0234073 -0.0584859 0.00899911
vn 0.360221 -0.927441 0.100471
v 0.0177403 -0.060447 0.00100002
vn 0.278178 -0.948769 -0.149849
v 0.00598734 -0.062704 0.00100002
vn 0.0946849 -0.991665 -0.0873756
v 0.0558079 -0.0287496 0.00899911
vn 0.86161 -0.497347 0.101361
v 0.0464005 -0.010117 0.1548
vn 0.936828 -0.179029 0.300504
v 0.0474978 0.00045564 0.1548
vn 0.965427 0.0225106 0.259701
v 0.0210151 -0.0425881 0.1548
vn 0.404399 -0.806572 0.431164
v 0.0110097 -0.046196 0.1548
vn 0.223401 -0.865169 0.44897
v 0.00045564 -0.0474978 0.1548
vn 0.00421148 -0.925457 0.37883
v -0.0923057 0.00761095 0.0322003
vn -0.905553 -0.308602 0.291098
v -0.0429879 0.0201875 0.1548
vn -0.75714 0.355392 0.54812
v -0.0923057 0.0176038 0.0319907
vn -0.862532 0.384912 0.328455
v -0.037418 0.0292537 0.1548
vn -0.710616 0.548539 0.440601
v -0.0923057 0.0144689 0.0338618
vn -0.932678 0.0967361 0.347497
v -0.0804299 -0.017597 0.0270998
vn -0.700311 -0.696604 0.155911
v 0.0545513 0.0314877 0.00899911
vn 0.83475 0.54143 0.100225
v 0.0368415 0.0299697 0.1548
vn 0.781389 0.605576 0.150698
v 0.047603 0.0412559 0.00899911
vn 0.736599 0.668792 0.100694
v 0.0425881 0.0210151 0.1548
vn 0.886351 0.425547 0.182461
v 0.0545513 -0.0315 0.00100002
vn 0.862773 -0.498034 -0.0870874
v -0.0234073 -0.0584859 0.00899911
vn -0.362059 -0.926725 0.100473
v -0.0389423 -0.0495194 0.00100002
vn -0.622714 -0.776671 -0.0949183
v 0.0595284 -0.0205971 0.00100002
vn 0.934302 -0.323313 -0.150162
v 0.0613641 -0.00881852 -0
vn 0.178945 -0.0257566 -0.983522
v 0.0585798 -0.0202764 -0
vn 0.0557623 -0.0192996 -0.998258
v 0.0389423 -0.0495194 0.00100002
vn 0.611359 -0.77694 -0.150349
v 0.0468515 -0.0405899 -0
vn 0.030681 -0.0283638 -0.999127
v 0.0284091 -0.0551065 -0
vn 0.015618 -0.0302954 -0.999419
v 0.0119131 -0.061853 0.00899911
vn 0.169029 -0.980462 0.100618
v -0.010117 -0.0464005 0.1548
vn -0.21095 -0.860658 0.463432
v -0.0147836 -0.0610143 0.00899911
vn -0.279684 -0.954758 0.10106
v -0.0464005 0.010117 0.1548
vn -0.792855 0.175168 0.583693
v -0.0923098 0.00562272 0.0289067
vn -0.978213 -0.204955 0.0330562
v -0.0923057 0.0194001 0.0251669
vn -0.98912 0.146844 -0.00883181
v -0.0595284 -0.0205971 0.00100002
vn -0.669105 -0.289611 -0.684415
v -0.0585798 -0.0202764 -0
vn -0.147372 -0.04188 -0.988194
v -0.056892 -0.0239888 -0
vn -0.0146111 -0.00667254 -0.999871
v -0.0582841 -0.0233228 0.00100002
vn -0.677669 -0.309704 -0.66697
v 0.0624975 0.00596946 0.00899911
vn 0.993821 0.0471245 0.10049
v 0.0629287 0.00299707 0.00100002
vn 0.986961 0.0553551 -0.151139
v 0.0623496 0.00895419 0.00899911
vn 0.980897 0.166746 0.100182
v -0.0119131 0.061853 0.00100002
vn -0.155917 0.98545 -0.0676684
v -0.0177403 0.060447 0.00899911
vn -0.296886 0.9496 0.100593
v 0.046196 0.0110097 0.1548
vn 0.948669 0.22775 0.219446
v 0.0595284 0.0205971 0.00899911
vn 0.941857 0.320682 0.100345
v 0.0177403 0.060447 0.00899911
vn 0.29152 0.951273 0.100473
v 0.0119131 0.061853 0.00100002
vn 0.188409 0.978237 -0.0869171
v 0.0536889 -0.0309943 -0
vn 0.0655395 -0.0378366 -0.997132
v -0.0177403 -0.060447 0.00100002
vn -0.278175 -0.948758 -0.149922
v -0.00588878 -0.0617173 -0
vn -0.00206433 -0.0161391 -0.999868
v -0.0110097 0.046196 0.1548
vn -0.214787 0.968398 0.126777
v -0.0210151 0.0425881 0.1548
vn -0.446685 0.885958 0.124703
v -0.0619184 0.00294773 -0
vn -0.125191 0.00575476 -0.992116
v -0.0900723 0.012242 0.018141
vn -0.524739 0.0829172 -0.847215
v -0.060243 0.0146153 -0
vn -0.133922 0.0333668 -0.99043
v 0.0619184 0.00294773 -0
vn 0.178452 0.00330547 -0.983943
v 0.0610314 0.0091392 -0
vn 0.325733 0.0467753 -0.944304
v 0.0624975 -0.00596946 0.00100002
vn 0.989047 -0.047918 -0.139604
v 0.00588879 -0.0617173 -0
vn 0.00232342 -0.0243619 -0.999701
v 0.038314 -0.04873 -0
vn 0.0132963 -0.0168922 -0.999769
v -0.0923057 0.019405 0.0288155
vn -0.706451 0.668146 0.233472
v -0.0299697 0.0368415 0.1548
vn -0.59459 0.743847 0.305213
v 0.0292537 0.037418 0.1548
vn 0.621412 0.773832 0.1226
v 0.0557956 0.0287743 0.00899911
vn 0.904925 0.413562 0.100387
v 0.0563869 0.0257525 -0
vn 0.586855 0.278245 -0.760382
v 0.0558079 0.0287496 0.00100002
vn 0.844784 0.487643 -0.220326
v 0.0504982 0.0359524 -0
vn 0.49181 0.3087 -0.814142
v 0.0612162 0.0148496 0.00100002
vn 0.976883 0.202721 -0.0678515
v -0.0147836 0.0610143 0.00100002
vn -0.27834 0.95017 -0.140371
v -0.0117283 0.0608786 -0
vn -0.00750009 0.0391965 -0.999203
v -0.0234073 0.0584859 0.00100002
vn -0.373448 0.920023 -0.118722
v -0.0288649 0.0559945 0.00899911
vn -0.452791 0.886168 0.0984146
v -0.0340515 0.0529975 0.00100002
vn -0.518695 0.844055 -0.136115
v 0.010117 0.0464005 0.1548
vn 0.0642774 0.307723 0.949302
v 0.0201875 0.0429879 0.1548
vn 0.409627 0.905415 0.111487
v -0.0454471 -0.0433156 0.00100002
vn -0.670155 -0.702367 -0.239944
v -0.047603 -0.0412559 0.00100002
vn -0.702726 -0.541867 -0.461039
v -0.0545513 -0.0314877 0.00100002
vn -0.715203 -0.417172 -0.560761
v -0.080427 -0.0150484 0.0225849
vn -0.73104 -0.414046 -0.542353
v -0.0284091 -0.0551065 -0
vn -0.008293 -0.0160866 -0.999836
v -0.038314 -0.04873 -0
vn -0.00514074 -0.00690022 -0.999963
v 0 0.063 0.00100002
vn 0 0.988739 -0.149648
v 0.0117283 0.0608786 -0
vn 0.0127984 0.0663848 -0.997712
v -0.0427737 0.0448696 -0
vn -0.0161663 0.0169529 -0.999726
v -0.0335094 0.0521464 -0
vn -0.00733679 0.0114006 -0.999908
v -0.0513112 0.0365321 0.00100002
vn -0.558042 0.473131 -0.681715
v -0.0504982 0.0359524 -0
vn -0.0857239 0.0552801 -0.994784
v -0.0901332 0.0176013 0.0198322
vn -0.554478 0.414538 -0.721604
v -0.0904174 0.0140235 0.0187031
vn -0.523398 0.180816 -0.832683
v -0.0563869 0.0257525 -0
vn -0.150752 0.0657135 -0.986385
v -0.0923057 0.0121017 0.0197755
vn -0.647966 -0.149642 -0.746825
v -0.0903281 0.0167425 0.019561
vn -0.536306 0.31352 -0.783633
v -0.0612162 -0.00944753 -0
vn -0.140239 -0.0339702 -0.989535
v -0.0896134 0.0113561 0.0178625
vn -0.555186 -0.0418156 -0.830674
v -0.0613641 -0.00881852 -0
vn -0.12034 -0.00681749 -0.992709
v -0.0923057 0.00903323 0.0206482
vn -0.713737 -0.354005 -0.604368
v 0.0174569 -0.0594849 -0
vn 0.00403101 -0.013732 -0.999898
v -0.0898489 0.0215483 0.0273166
vn -0.547428 0.822249 0.155655
v 0.0335094 0.0521464 -0
vn 0.0446643 0.0695245 -0.99658
v 0.0340515 0.0529975 0.00100002
vn 0.526795 0.834823 -0.159869
v 0.0230377 0.0575486 -0
vn 0.0300624 0.068547 -0.997195
v 0.0427737 0.0448696 -0
vn 0.172507 0.185136 -0.967453
v 0.031489 0.0545515 0.00899911
vn 0.529894 0.841681 0.103847
v 0.060243 0.0146153 -0
vn 0.582066 0.13226 -0.802314
v 0.0572986 0.0261596 0.00100002
vn 0.918147 0.391887 -0.0585823
v -0.0224217 0.0577336 -0
vn -0.00505273 0.0171598 -0.99984
v -0.0230377 0.0575486 -0
vn -0.00532676 0.0165227 -0.999849
v -0.0231486 0.0574992 -0
vn -0.0134612 0.0261001 -0.999569
v -0.0536889 -0.0309943 -0
vn -0.0108937 -0.00701844 -0.999916
v -0.0468515 -0.0405899 -0
vn -0.00637562 -0.00510911 -0.999967
v -0.0431926 -0.0440926 -0
vn -0.0115501 -0.0121095 -0.99986
v -0.0174569 -0.0594849 -0
vn -0.0027615 -0.00940729 -0.999952
v -0.0288649 -0.0559945 0.00100002
vn -0.456437 -0.885474 -0.0871886
v 0 0.0619887 -0
vn 0 0.0255692 -0.999673
v -0.0364045 0.0511474 0.00100002
vn -0.567521 0.720623 -0.398273
v -0.0434636 0.045585 0.00100002
vn -0.575467 0.64678 -0.500514
v -0.0900926 0.0196535 0.0218019
vn -0.577031 0.712222 -0.399718
v -0.0454225 0.0433279 0.00100002
vn -0.559907 0.485364 -0.67151
v -0.0534425 0.0308587 -0
vn -0.134911 0.0778892 -0.987792
v -0.0923057 0.015244 0.0203252
vn -0.785831 0.218522 -0.578548
v -0.0923057 0.0178326 0.022189
vn -0.97396 0.168319 -0.151893
v -0.0897108 0.0115407 0.0179216
vn -0.550041 -0.0223863 -0.834838
v -0.0923057 0.00665129 0.0227732
vn -0.834836 -0.43206 -0.341136
v -0.0923057 0.0193509 0.0249969
vn -0.965258 0.233412 -0.117454
v -0.0898611 0.0182854 0.0200467
vn -0.565135 0.491103 -0.662902
v -0.0896134 0.0217082 0.0271761
vn -0.467687 0.878659 0.0960552
v 0.0491553 0.0375065 -0
vn 0.185338 0.160547 -0.969471
v 0.0493524 0.0388015 0.00100002
vn 0.737016 0.638847 -0.220638
v 0.0434637 0.045585 0.00100002
vn 0.707004 0.704749 -0.0589399
v 0.0513113 0.0365321 0.00100002
vn 0.827728 0.558088 -0.0583501
v 0.0288649 0.0559945 0.00899911
vn 0.394894 0.913763 0.0953696
v 0.060243 0.017674 0.00100002
vn 0.921563 0.319206 -0.220971
v 0.0570276 0.0239025 -0
vn 0.000463819 0.000160588 -1
v -0.090454 0.0148183 0.0189546
vn -0.531427 0.252479 -0.808603
v -0.0894266 0.0188932 0.020239
vn -0.580196 0.60352 -0.546932
v -0.0896824 0.0213489 0.0246073
vn -0.558813 0.790901 -0.249407
v 0.0411229 0.047435 0.00100002
vn 0.61252 0.777763 -0.141081
v 0.0234073 0.0584859 0.00100002
vn 0.365566 0.92294 -0.120597
v -0.0900926 0.0209995 0.024563
vn -0.600257 0.720339 -0.347567
v 0.0389423 0.0495194 0.00899911
vn 0.632872 0.768062 0.0977398
f 2//2 1//1 3//3
f 4//4 1//1 2//2
f 5//5 6//6 7//7
f 9//9 8//8 10//10
f 8//8 9//9 11//11
f 12//12 13//13 14//14
f 16//16 15//15 17//17
f 13//13 18//18 14//14
f 20//20 19//19 21//21
f 23//23 22//22 3//3
f 24//24 22//22 23//23
f 25//25 26//26 27//27
f 28//28 25//25 27//27
f 29//29 30//30 31//31
f 33//33 32//32 11//11
f 32//32 33//33 34//34
f 35//35 1//1 4//4
f 8//8 35//35 4//4
f 35//35 23//23 3//3
f 1//1 35//35 3//3
f 36//36 24//24 37//37
f 38//38 36//36 37//37
f 6//6 39//39 7//7
f 8//8 40//40 10//10
f 40//40 8//8 4//4
f 41//41 8//8 11//11
f 32//32 41//41 11//11
f 41//41 34//34 42//42
f 41//41 32//32 34//34
f 43//43 44//44 37//37
f 24//24 43//43 37//37
f 43//43 24//24 23//23
f 45//45 5//5 7//7
f 15//15 46//46 13//13
f 46//46 18//18 13//13
f 46//46 15//15 16//16
f 48//48 47//47 49//49
f 50//50 16//16 17//17
f 19//19 51//51 21//21
f 51//51 12//12 14//14
f 12//12 51//51 27//27
f 51//51 28//28 27//27
f 51//51 19//19 28//28
f 53//53 52//52 54//54
f 55//55 52//52 53//53
f 40//40 56//56 10//10
f 56//56 4//4 2//2
f 56//56 40//40 4//4
f 25//25 57//57 26//26
f 19//19 58//58 28//28
f 58//58 25//25 28//28
f 58//58 19//19 20//20
f 59//59 33//33 11//11
f 9//9 59//59 11//11
f 59//59 9//9 10//10
f 56//56 59//59 10//10
f 60//60 59//59 61//61
f 59//59 60//60 33//33
f 36//36 62//62 24//24
f 62//62 22//22 24//24
f 62//62 63//63 2//2
f 62//62 2//2 3//3
f 22//22 62//62 3//3
f 64//64 36//36 38//38
f 64//64 62//62 36//36
f 65//65 39//39 38//38
f 65//65 38//38 37//37
f 44//44 65//65 37//37
f 39//39 65//65 7//7
f 45//45 65//65 44//44
f 65//65 45//45 7//7
f 45//45 66//66 5//5
f 5//5 66//66 67//67
f 66//66 57//57 67//67
f 57//57 66//66 26//26
f 68//68 50//50 17//17
f 68//68 47//47 48//48
f 50//50 68//68 48//48
f 18//18 69//69 14//14
f 69//69 51//51 14//14
f 51//51 69//69 21//21
f 46//46 69//69 18//18
f 69//69 46//46 16//16
f 50//50 69//69 16//16
f 69//69 50//50 48//48
f 69//69 70//70 21//21
f 71//71 72//72 73//73
f 74//74 71//71 73//73
f 75//75 34//34 76//76
f 77//77 75//75 76//76
f 34//34 75//75 42//42
f 75//75 77//77 42//42
f 78//78 79//79 30//30
f 77//77 80//80 42//42
f 80//80 77//77 81//81
f 55//55 80//80 81//81
f 82//82 83//83 29//29
f 63//63 84//84 2//2
f 84//84 56//56 2//2
f 59//59 84//84 61//61
f 84//84 59//59 56//56
f 6//6 85//85 86//86
f 57//57 85//85 67//67
f 85//85 5//5 67//67
f 5//5 85//85 6//6
f 88//88 87//87 79//79
f 30//30 87//87 31//31
f 79//79 87//87 30//30
f 89//89 90//90 91//91
f 92//92 93//93 76//76
f 60//60 92//92 76//76
f 94//94 60//60 76//76
f 60//60 94//94 33//33
f 34//34 94//94 76//76
f 33//33 94//94 34//34
f 39//39 95//95 38//38
f 62//62 96//96 63//63
f 64//64 96//96 62//62
f 97//97 69//69 48//48
f 69//69 97//97 70//70
f 98//98 97//97 49//49
f 97//97 48//48 49//49
f 99//99 53//53 54//54
f 100//100 55//55 81//81
f 55//55 100//100 52//52
f 102//102 101//101 103//103
f 104//104 77//77 76//76
f 77//77 104//104 81//81
f 105//105 78//78 106//106
f 107//107 105//105 106//106
f 78//78 105//105 79//79
f 105//105 107//107 79//79
f 108//108 107//107 109//109
f 108//108 88//88 79//79
f 107//107 108//108 79//79
f 110//110 29//29 31//31
f 110//110 82//82 29//29
f 82//82 110//110 111//111
f 112//112 58//58 20//20
f 113//113 112//112 20//20
f 114//114 74//74 73//73
f 115//115 114//114 20//20
f 114//114 113//113 20//20
f 117//117 116//116 58//58
f 78//78 118//118 106//106
f 119//119 118//118 83//83
f 83//83 118//118 29//29
f 29//29 118//118 30//30
f 118//118 78//78 30//30
f 121//121 120//120 109//109
f 122//122 123//123 124//124
f 122//122 120//120 123//123
f 125//125 126//126 91//91
f 90//90 125//125 91//91
f 127//127 125//125 90//90
f 123//123 128//128 124//124
f 127//127 129//129 72//72
f 130//130 89//89 131//131
f 129//129 130//130 131//131
f 130//130 129//129 127//127
f 71//71 132//132 72//72
f 132//132 127//127 72//72
f 132//132 71//71 74//74
f 114//114 132//132 74//74
f 132//132 114//114 115//115
f 127//127 132//132 21//21
f 133//133 64//64 38//38
f 95//95 133//133 38//38
f 134//134 98//98 88//88
f 134//134 97//97 98//98
f 97//97 134//134 70//70
f 136//136 135//135 137//137
f 138//138 135//135 136//136
f 99//99 139//139 111//111
f 93//93 140//140 76//76
f 140//140 104//104 76//76
f 141//141 101//101 102//102
f 141//141 100//100 81//81
f 141//141 102//102 52//52
f 100//100 141//141 52//52
f 142//142 107//107 106//106
f 142//142 143//143 107//107
f 144//144 121//121 109//109
f 107//107 144//144 109//109
f 143//143 144//144 107//107
f 145//145 114//114 73//73
f 114//114 145//145 113//113
f 145//145 146//146 113//113
f 147//147 112//112 113//113
f 146//146 147//147 113//113
f 112//112 147//147 58//58
f 147//147 117//117 58//58
f 85//85 148//148 86//86
f 116//116 148//148 85//85
f 149//149 85//85 57//57
f 149//149 116//116 85//85
f 149//149 57//57 25//25
f 58//58 149//149 25//25
f 116//116 149//149 58//58
f 118//118 150//150 106//106
f 150//150 118//118 119//119
f 120//120 151//151 109//109
f 151//151 120//120 152//152
f 151//151 153//153 109//109
f 153//153 151//151 152//152
f 120//120 154//154 152//152
f 122//122 154//154 120//120
f 155//155 128//128 123//123
f 128//128 155//155 126//126
f 156//156 128//128 126//126
f 156//156 125//125 127//127
f 156//156 127//127 21//21
f 157//157 156//156 21//21
f 128//128 156//156 124//124
f 158//158 127//127 90//90
f 158//158 130//130 127//127
f 89//89 158//158 90//90
f 130//130 158//158 89//89
f 159//159 20//20 21//21
f 132//132 159//159 21//21
f 159//159 115//115 20//20
f 159//159 132//132 115//115
f 157//157 160//160 153//153
f 70//70 160//160 21//21
f 160//160 157//157 21//21
f 154//154 161//161 152//152
f 161//161 156//156 157//157
f 161//161 154//154 122//122
f 156//156 161//161 124//124
f 161//161 122//122 124//124
f 108//108 162//162 88//88
f 162//162 134//134 88//88
f 162//162 108//108 109//109
f 163//163 164//164 103//103
f 164//164 163//163 138//138
f 164//164 165//165 54//54
f 165//165 164//164 138//138
f 166//166 102//102 103//103
f 164//164 166//166 103//103
f 102//102 166//166 52//52
f 52//52 166//166 54//54
f 166//166 164//164 54//54
f 167//167 82//82 111//111
f 139//139 167//167 111//111
f 167//167 139//139 136//136
f 141//141 168//168 101//101
f 168//168 169//169 101//101
f 104//104 168//168 81//81
f 168//168 141//141 81//81
f 169//169 168//168 140//140
f 140//140 168//168 104//104
f 125//125 170//170 126//126
f 170//170 156//156 126//126
f 156//156 170//170 125//125
f 171//171 157//157 153//153
f 171//171 161//161 157//157
f 171//171 153//153 152//152
f 161//161 171//171 152//152
f 134//134 172//172 70//70
f 162//162 172//172 134//134
f 172//172 160//160 70//70
f 172//172 162//162 109//109
f 153//153 172//172 109//109
f 173//173 138//138 136//136
f 173//173 165//165 138//138
f 174//174 136//136 137//137
f 174//174 167//167 136//136
f 167//167 174//174 82//82
f 82//82 174//174 83//83
f 119//119 174//174 137//137
f 174//174 119//119 83//83
f 160//160 175//175 153//153
f 175//175 172//172 153//153
f 172//172 175//175 160//160
f 173//173 176//176 165//165
f 165//165 176//176 54//54
f 139//139 176//176 136//136
f 176//176 173//173 136//136
f 176//176 99//99 54//54
f 176//176 139//139 99//99
f 95//95 6//6 86//86
f 95//95 39//39 6//6
f 80//80 110//110 42//42
f 15//15 110//110 17//17
f 110//110 43//43 23//23
f 26//26 110//110 27//27
f 35//35 110//110 23//23
f 110//110 12//12 27//27
f 66//66 110//110 26//26
f 110//110 41//41 42//42
f 99//99 110//110 53//53
f 12//12 110//110 13//13
f 110//110 15//15 13//13
f 110//110 68//68 17//17
f 110//110 35//35 8//8
f 41//41 110//110 8//8
f 43//43 110//110 44//44
f 110//110 45//45 44//44
f 47//47 110//110 49//49
f 110//110 55//55 53//53
f 110//110 98//98 49//49
f 87//87 110//110 31//31
f 110//110 66//66 45//45
f 68//68 110//110 47//47
f 110//110 80//80 55//55
f 110//110 87//87 88//88
f 98//98 110//110 88//88
f 110//110 99//99 111//111
f 135//135 169//169 137//137
f 126//126 169//169 91//91
f 169//169 84//84 63//63
f 72//72 169//169 73//73
f 169//169 119//119 137//137
f 169//169 89//89 91//91
f 133//133 169//169 64//64
f 92//92 169//169 93//93
f 169//169 120//120 121//121
f 96//96 169//169 63//63
f 144//144 169//169 121//121
f 147//147 169//169 117//117
f 169//169 60//60 61//61
f 169//169 95//95 86//86
f 84//84 169//169 61//61
f 169//169 142//142 106//106
f 148//148 169//169 86//86
f 89//89 169//169 131//131
f 150//150 169//169 106//106
f 169//169 92//92 60//60
f 169//169 129//129 131//131
f 169//169 96//96 64//64
f 169//169 155//155 123//123
f 101//101 169//169 103//103
f 169//169 140//140 93//93
f 169//169 145//145 73//73
f 169//169 116//116 117//117
f 120//120 169//169 123//123
f 129//129 169//169 72//72
f 169//169 133//133 95//95
f 169//169 135//135 138//138
f 169//169 163//163 103//103
f 142//142 169//169 143//143
f 169//169 144//144 143//143
f 145//145 169//169 146//146
f 169//169 147//147 146//146
f 169//169 148//148 116//116
f 169//169 150//150 119//119
f 155//155 169//169 126//126
f 163//163 169//169 138//138
